<svg width="36" height="36" viewBox="0 0 36 36" fill="none" xmlns="http://www.w3.org/2000/svg">
<path d="M24.75 7.5V4.5M11.25 7.5V4.5M4.875 12H31.125M4.5 15.066C4.5 11.8935 4.5 10.3065 5.154 9.0945C5.74537 8.01346 6.66299 7.14675 7.776 6.618C9.06 6 10.74 6 14.1 6H21.9C25.26 6 26.94 6 28.224 6.618C29.3535 7.161 30.27 8.028 30.846 9.093C31.5 10.308 31.5 11.895 31.5 15.0675V22.4355C31.5 25.608 31.5 27.195 30.846 28.407C30.2546 29.488 29.337 30.3547 28.224 30.8835C26.94 31.5 25.26 31.5 21.9 31.5H14.1C10.74 31.5 9.06 31.5 7.776 30.882C6.66322 30.3536 5.74562 29.4875 5.154 28.407C4.5 27.192 4.5 25.605 4.5 22.4325V15.066Z" stroke="#7B8D78" stroke-width="1.5" stroke-linecap="round" stroke-linejoin="round"/>
</svg>
