<svg width="72" height="61" viewBox="0 0 72 61" fill="none" xmlns="http://www.w3.org/2000/svg">
<g clip-path="url(#clip0_559_14)">
<path d="M38.0091 0.787292C36.9101 -0.228739 35.0931 -0.228739 33.9941 0.787292L0.480011 21.1289C0.340198 21.2136 0.224516 21.3333 0.144181 21.4762C0.063845 21.6191 0.0215805 21.7805 0.0214844 21.9448V58.0148C0.0214844 59.6599 1.35917 61 3.0038 61H68.9975C70.6421 61 71.9798 59.6599 71.9798 58.0148V21.9448C71.9797 21.7805 71.9374 21.6191 71.8571 21.4762C71.7768 21.3333 71.6611 21.2136 71.5213 21.1289L38.0091 0.787292ZM35.0609 2.36376C35.1263 2.32421 35.1867 2.27684 35.2409 2.2227C35.3405 2.12235 35.4587 2.04274 35.589 1.98843C35.7192 1.93411 35.8587 1.90616 35.9997 1.90616C36.1407 1.90616 36.2802 1.93411 36.4104 1.98843C36.5406 2.04274 36.6589 2.12235 36.7585 2.2227C36.8137 2.27567 36.874 2.32293 36.9385 2.36376L69.5792 22.1773L45.9366 36.3522C45.7357 36.4885 45.5942 36.697 45.5412 36.935C45.4881 37.1729 45.5275 37.4222 45.6513 37.6318C45.7751 37.8415 45.974 37.9955 46.207 38.0624C46.4401 38.1293 46.6898 38.1039 46.9049 37.9916L70.1059 24.095V57.9443L38.0185 36.4685C36.9992 35.6507 34.9983 35.6507 34.0472 36.4208L1.89538 57.9348V24.095L25.0945 37.9916C25.3106 38.121 25.569 38.1588 25.8127 38.0966C26.0565 38.0344 26.2657 37.8773 26.3943 37.6599C26.523 37.4425 26.5605 37.1826 26.4987 36.9373C26.4369 36.6921 26.2807 36.4816 26.0646 36.3522L2.42022 22.1773L35.0609 2.36376ZM68.3817 59.0938H3.60443L35.1632 37.9611C35.491 37.698 36.5122 37.6999 36.9044 38.0087L68.3817 59.0938Z" fill="#F1F2EB"/>
<path d="M12.3165 24.7812H59.6849C59.9362 24.7812 60.1772 24.6808 60.3548 24.5021C60.5325 24.3233 60.6323 24.0809 60.6323 23.8281C60.6323 23.5753 60.5325 23.3329 60.3548 23.1542C60.1772 22.9754 59.9362 22.875 59.6849 22.875H12.3165C12.0653 22.875 11.8243 22.9754 11.6466 23.1542C11.469 23.3329 11.3691 23.5753 11.3691 23.8281C11.3691 24.0809 11.469 24.3233 11.6466 24.5021C11.8243 24.6808 12.0653 24.7812 12.3165 24.7812Z" fill="#F1F2EB"/>
</g>
<defs>
<clipPath id="clip0_559_14">
<rect width="72" height="61" fill="white"/>
</clipPath>
</defs>
</svg>
