<svg width="86" height="139" viewBox="0 0 86 139" fill="none" xmlns="http://www.w3.org/2000/svg">
<ellipse cx="30.3842" cy="62.2424" rx="28.8119" ry="23.7114" fill="#184505"/>
<path d="M63.4538 40.013C63.4538 53.1084 40.0316 56.1029 24.1193 56.1029C8.20686 56.1029 4.07617 40.1942 4.07617 27.0987C4.07617 14.0033 11.4639 0 27.3763 0C43.2886 0 63.4538 26.9175 63.4538 40.013Z" fill="#184505"/>
<ellipse cx="46.6655" cy="87.8592" rx="28.8119" ry="23.7114" fill="#184505"/>
<path d="M32.384 97.1744C32.384 110.27 23.9941 117.075 8.08173 117.075C-7.83066 117.075 -24.4883 103.707 -24.4883 90.6114C-24.4883 77.516 -12.3404 73.463 3.57203 73.463C19.4844 73.463 32.384 84.079 32.384 97.1744Z" fill="#184505"/>
<path d="M27.8766 64.5712C27.8766 77.6667 4.95547 85.7421 -10.9569 85.7421C-26.8693 85.7421 -31 67.0812 -31 53.9858C-31 40.8903 -15.7171 27.0988 5.32809 27.0988C21.2405 27.0988 27.8766 51.4758 27.8766 64.5712Z" fill="#184505"/>
<path d="M86 60.5487C86 73.6441 77.1091 79.8142 61.1967 79.8142C45.2843 79.8142 32.3848 69.1982 32.3848 56.1028C32.3848 43.0073 35.5133 29.4275 51.4257 29.4275C67.3381 29.4275 86 47.4533 86 60.5487Z" fill="#184505"/>
<path d="M28.1284 76.427L40.4958 145.021H15.7609L28.1284 76.427Z" fill="#184505"/>
</svg>
