<svg width="28" height="46" viewBox="0 0 28 46" fill="none" xmlns="http://www.w3.org/2000/svg">
<ellipse cx="14.2119" cy="17.0542" rx="6.67087" ry="6.49685" fill="#F1F2EB"/>
<path d="M21.8689 10.9634C21.8689 14.5515 16.4459 15.372 12.7617 15.372C9.07748 15.372 8.12109 11.0131 8.12109 7.42497C8.12109 3.83686 9.83158 0 13.5158 0C17.2 0 21.8689 7.37532 21.8689 10.9634Z" fill="#F1F2EB"/>
<ellipse cx="17.9814" cy="24.0731" rx="6.67087" ry="6.49685" fill="#F1F2EB"/>
<path d="M14.6755 26.6254C14.6755 30.2136 12.733 32.0782 9.0488 32.0782C5.36458 32.0782 1.50781 28.4153 1.50781 24.8272C1.50781 21.2391 4.32044 20.1286 8.00466 20.1286C11.6889 20.1286 14.6755 23.0373 14.6755 26.6254Z" fill="#F1F2EB"/>
<path d="M13.6318 17.6923C13.6318 21.2804 8.32482 23.4931 4.6406 23.4931C0.956385 23.4931 0 18.3801 0 14.7919C0 11.2038 3.53846 7.42499 8.4111 7.42499C12.0953 7.42499 13.6318 14.1042 13.6318 17.6923Z" fill="#F1F2EB"/>
<path d="M27.0894 16.5902C27.0894 20.1783 25.0309 21.8688 21.3467 21.8688C17.6624 21.8688 14.6758 18.9601 14.6758 15.372C14.6758 11.7839 15.4001 8.06305 19.0844 8.06305C22.7686 8.06305 27.0894 13.0021 27.0894 16.5902Z" fill="#F1F2EB"/>
<path d="M13.6892 20.9407L16.5527 39.7352H10.8258L13.6892 20.9407Z" fill="#F1F2EB"/>
</svg>
